<?xml version="1.0" standalone="no"?>
<!DOCTYPE svg PUBLIC "-//W3C//DTD SVG 20010904//EN"
 "http://www.w3.org/TR/2001/REC-SVG-20010904/DTD/svg10.dtd">
<svg version="1.0" xmlns="http://www.w3.org/2000/svg"
 width="260.000000pt" height="260.000000pt" viewBox="0 0 260.000000 260.000000"
 preserveAspectRatio="xMidYMid meet">
<metadata>
Created by potrace 1.11, written by Peter Selinger 2001-2013
</metadata>
<g transform="translate(0.000000,260.000000) scale(0.100000,-0.100000)"
fill="#000000" stroke="none">
<path d="M565 2593 c-57 -7 -187 -34 -203 -42 -10 -5 -34 -17 -55 -27 -105
-51 -212 -172 -256 -289 -47 -126 -50 -179 -47 -970 3 -825 2 -811 72 -954 71
-144 208 -247 381 -288 72 -17 138 -18 818 -18 407 0 767 3 800 8 264 33 444
193 503 447 15 68 17 149 17 835 0 699 -1 767 -18 845 -48 224 -206 383 -432
437 -62 14 -159 17 -810 18 -407 1 -753 0 -770 -2z"/>
</g>
</svg>
