<?xml version="1.0" encoding="UTF-8" standalone="no"?>
<svg width="18px" height="17px" viewBox="0 0 18 17" version="1.1" xmlns="http://www.w3.org/2000/svg" xmlns:xlink="http://www.w3.org/1999/xlink" xmlns:sketch="http://www.bohemiancoding.com/sketch/ns">
    <!-- Generator: Sketch 3.3.1 (12005) - http://www.bohemiancoding.com/sketch -->
    <title>star-half</title>
    <desc>Created with Sketch.</desc>
    <defs></defs>
    <g id="Page-1" stroke="none" stroke-width="1" fill="none" fill-rule="evenodd" sketch:type="MSPage">
        <g id="star-half" sketch:type="MSLayerGroup" fill="#000000">
            <path d="M14.5,17 C14.418,17 14.336,16.98 14.261,16.939 L11.261,15.303 C11.019,15.171 10.929,14.867 11.061,14.625 C11.193,14.383 11.497,14.293 11.739,14.425 L13.837,15.57 L13.672,14.583 C13.627,14.311 13.811,14.053 14.083,14.008 C14.355,13.963 14.613,14.147 14.658,14.419 L14.991,16.419 C15.022,16.608 14.943,16.798 14.788,16.909 C14.702,16.97 14.6,17.002 14.498,17.002 L14.5,17 Z" id="Shape" sketch:type="MSShapeGroup"></path>
            <path d="M13.833,13 C13.593,13 13.381,12.827 13.34,12.582 L13.007,10.582 C12.98,10.423 13.032,10.26 13.147,10.146 L14.147,9.146 C14.342,8.951 14.659,8.951 14.854,9.146 C15.049,9.341 15.049,9.658 14.854,9.853 L14.036,10.671 L14.327,12.417 C14.372,12.689 14.188,12.947 13.916,12.992 C13.888,12.997 13.861,12.999 13.833,12.999 L13.833,13 Z" id="Shape" sketch:type="MSShapeGroup"></path>
            <path d="M16.5,8 C16.372,8 16.244,7.951 16.146,7.854 C15.951,7.659 15.951,7.342 16.146,7.147 L16.459,6.834 L14.417,6.494 C14.145,6.449 13.961,6.191 14.006,5.919 C14.051,5.647 14.309,5.463 14.581,5.508 L17.581,6.008 C17.766,6.039 17.918,6.17 17.975,6.349 C18.032,6.528 17.985,6.723 17.852,6.855 L16.852,7.855 C16.754,7.953 16.626,8.002 16.498,8.002 L16.5,8 Z" id="Shape" sketch:type="MSShapeGroup"></path>
            <path d="M12.501,6.167 C12.474,6.167 12.446,6.165 12.418,6.16 L11.418,5.993 C11.26,5.967 11.125,5.866 11.053,5.723 L10.053,3.723 C9.93,3.476 10.03,3.176 10.277,3.052 C10.524,2.928 10.824,3.029 10.948,3.276 L11.834,5.048 L12.583,5.173 C12.855,5.218 13.039,5.476 12.994,5.748 C12.953,5.992 12.741,6.166 12.501,6.166 L12.501,6.167 Z" id="Shape" sketch:type="MSShapeGroup"></path>
            <path d="M3.21,16.907 C3.054,16.796 2.975,16.606 3.007,16.417 L3.965,10.671 L0.147,6.853 C0.015,6.721 -0.033,6.525 0.024,6.347 C0.081,6.169 0.233,6.037 0.418,6.006 L6.167,5.048 L8.553,0.276 C8.638,0.107 8.811,1.77635684e-15 9,1.77635684e-15 C9.189,1.77635684e-15 9.363,0.107 9.447,0.276 L9.947,1.276 C10.07,1.523 9.97,1.823 9.723,1.947 C9.476,2.071 9.176,1.97 9.052,1.723 L8.999,1.617 L8.99899966,5.99300003 L8.99899966,7.46145153 L8.99899966,8.21114349 L8.99899966,9.79934216 L8.99899966,10.6709995 L8.99899966,11.9542561 L8.99899966,13.0609999 C8.99899966,13.0609999 9.09,12.98 9.239,13.061 L9.739,13.334 C9.981,13.466 10.071,13.77 9.938,14.012 C9.805,14.254 9.502,14.344 9.26,14.211 L8.999,14.069 L3.738,16.938 C3.663,16.979 3.581,16.999 3.499,16.999 C3.398,17 3.296,16.969 3.21,16.907 Z" id="Shape-Copy" sketch:type="MSShapeGroup"></path>
            <path d="M3.5,17 C3.398,17 3.296,16.969 3.21,16.907 C3.054,16.796 2.975,16.606 3.007,16.417 L3.965,10.671 L0.147,6.853 C0.015,6.721 -0.033,6.525 0.024,6.347 C0.081,6.169 0.233,6.037 0.418,6.006 L6.167,5.048 L8.553,0.276 C8.638,0.107 8.811,1.77635684e-15 9,1.77635684e-15 L9,1.77635684e-15 C9.189,1.77635684e-15 9.363,0.107 9.447,0.276 L9.947,1.276 C10.07,1.523 9.97,1.823 9.723,1.947 C9.476,2.071 9.176,1.97 9.052,1.723 L8.999,1.617 L6.946,5.723 C6.874,5.866 6.739,5.966 6.581,5.993 L1.539,6.833 L4.852,10.146 C4.966,10.26 5.018,10.422 4.992,10.582 L4.161,15.569 L8.76,13.061 C8.909,12.98 9.09,12.98 9.239,13.061 L9.739,13.334 C9.981,13.466 10.071,13.77 9.938,14.012 C9.805,14.254 9.502,14.344 9.26,14.211 L8.999,14.069 L3.738,16.938 C3.663,16.979 3.581,16.999 3.499,16.999 L3.5,17 Z" id="Shape" sketch:type="MSShapeGroup"></path>
        </g>
    </g>
</svg>