<?xml version="1.0" encoding="UTF-8" standalone="no"?>
<svg width="18px" height="17px" viewBox="0 0 18 17" version="1.1" xmlns="http://www.w3.org/2000/svg" xmlns:xlink="http://www.w3.org/1999/xlink" xmlns:sketch="http://www.bohemiancoding.com/sketch/ns">
    <!-- Generator: Sketch 3.3.1 (12005) - http://www.bohemiancoding.com/sketch -->
    <title>star-empty</title>
    <desc>Created with Sketch.</desc>
    <defs></defs>
    <g id="Page-1" stroke="none" stroke-width="1" fill="none" fill-rule="evenodd" sketch:type="MSPage">
        <g id="star-empty" sketch:type="MSLayerGroup" transform="translate(-1.000000, -1.000000)" fill="#000000">
            <path d="M5.499,7.333 C5.259,7.333 5.047,7.16 5.006,6.915 C4.961,6.643 5.145,6.385 5.417,6.34 L7.166,6.049 L7.552,5.277 C7.675,5.03 7.976,4.93 8.223,5.053 C8.47,5.176 8.57,5.477 8.447,5.724 L7.947,6.724 C7.875,6.867 7.74,6.967 7.582,6.994 L5.582,7.327 C5.554,7.332 5.526,7.334 5.499,7.334 L5.499,7.333 Z" id="Shape" sketch:type="MSShapeGroup"></path>
            <path d="M2.5,9 C2.372,9 2.244,8.951 2.146,8.854 L1.146,7.854 C1.014,7.722 0.966,7.526 1.023,7.348 C1.08,7.17 1.232,7.038 1.417,7.007 L3.417,6.674 C3.69,6.629 3.947,6.813 3.992,7.085 C4.037,7.357 3.853,7.615 3.581,7.66 L2.539,7.834 L2.852,8.147 C3.047,8.342 3.047,8.659 2.852,8.854 C2.754,8.952 2.626,9 2.498,9 L2.5,9 Z" id="Shape" sketch:type="MSShapeGroup"></path>
            <path d="M14.833,14 C14.593,14 14.381,13.827 14.34,13.582 L14.007,11.582 C13.98,11.423 14.032,11.26 14.147,11.146 L15.147,10.146 C15.342,9.951 15.659,9.951 15.854,10.146 C16.049,10.341 16.049,10.658 15.854,10.853 L15.036,11.671 L15.327,13.417 C15.372,13.689 15.188,13.947 14.916,13.992 C14.888,13.997 14.861,13.999 14.833,13.999 L14.833,14 Z" id="Shape" sketch:type="MSShapeGroup"></path>
            <path d="M15.5,18 C15.418,18 15.336,17.98 15.261,17.939 L12.261,16.303 C12.019,16.171 11.929,15.867 12.061,15.625 C12.193,15.383 12.497,15.293 12.739,15.425 L14.838,16.57 L14.673,15.583 C14.628,15.311 14.812,15.053 15.084,15.008 C15.356,14.963 15.614,15.147 15.659,15.419 L15.992,17.419 C16.023,17.608 15.944,17.798 15.789,17.909 C15.703,17.97 15.601,18.002 15.499,18.002 L15.5,18 Z" id="Shape" sketch:type="MSShapeGroup"></path>
            <path d="M5.334,13 C5.307,13 5.279,12.998 5.251,12.993 C4.979,12.948 4.795,12.69 4.84,12.418 L4.964,11.672 L4.146,10.854 C3.951,10.659 3.951,10.342 4.146,10.147 C4.341,9.952 4.658,9.952 4.853,10.147 L5.853,11.147 C5.967,11.261 6.019,11.423 5.993,11.583 L5.826,12.583 C5.785,12.828 5.573,13.001 5.333,13.001 L5.334,13 Z" id="Shape" sketch:type="MSShapeGroup"></path>
            <path d="M4.5,18 C4.398,18 4.296,17.969 4.21,17.907 C4.054,17.796 3.975,17.606 4.007,17.417 L4.507,14.417 C4.552,14.145 4.81,13.961 5.082,14.006 C5.354,14.051 5.538,14.309 5.493,14.581 L5.162,16.568 L6.261,15.969 C6.503,15.837 6.807,15.926 6.939,16.168 C7.071,16.41 6.982,16.714 6.739,16.846 L4.739,17.937 C4.664,17.978 4.582,17.998 4.5,17.998 L4.5,18 Z" id="Shape" sketch:type="MSShapeGroup"></path>
            <path d="M8.5,15.818 C8.323,15.818 8.151,15.724 8.061,15.557 C7.929,15.315 8.018,15.011 8.261,14.879 L9.761,14.061 C9.91,13.98 10.091,13.98 10.24,14.061 L10.74,14.334 C10.982,14.466 11.072,14.77 10.94,15.012 C10.808,15.254 10.504,15.344 10.262,15.212 L10.001,15.07 L8.74,15.758 C8.664,15.799 8.582,15.819 8.501,15.819 L8.5,15.818 Z" id="Shape" sketch:type="MSShapeGroup"></path>
            <path d="M17.5,9 C17.372,9 17.244,8.951 17.146,8.854 C16.951,8.659 16.951,8.342 17.146,8.147 L17.459,7.834 L15.417,7.494 C15.145,7.449 14.961,7.191 15.006,6.919 C15.051,6.647 15.309,6.463 15.581,6.508 L18.581,7.008 C18.766,7.039 18.918,7.17 18.975,7.349 C19.032,7.528 18.985,7.723 18.852,7.855 L17.852,8.855 C17.754,8.953 17.626,9.002 17.498,9.002 L17.5,9 Z" id="Shape" sketch:type="MSShapeGroup"></path>
            <path d="M13.501,7.167 C13.474,7.167 13.446,7.165 13.418,7.16 L12.418,6.993 C12.26,6.967 12.125,6.866 12.053,6.723 L11.053,4.723 C10.93,4.476 11.03,4.176 11.277,4.052 C11.524,3.928 11.824,4.029 11.948,4.276 L12.834,6.048 L13.583,6.173 C13.855,6.218 14.039,6.476 13.994,6.748 C13.953,6.992 13.741,7.166 13.501,7.166 L13.501,7.167 Z" id="Shape" sketch:type="MSShapeGroup"></path>
            <path d="M9,4 C8.925,4 8.849,3.983 8.777,3.947 C8.53,3.824 8.43,3.523 8.553,3.276 L9.553,1.276 C9.638,1.107 9.811,1 10,1 L10,1 C10.189,1 10.363,1.107 10.447,1.276 L10.947,2.276 C11.07,2.523 10.97,2.823 10.723,2.947 C10.476,3.071 10.176,2.97 10.052,2.723 L9.999,2.617 L9.446,3.723 C9.358,3.898 9.182,4 8.998,4 L9,4 Z" id="Shape" sketch:type="MSShapeGroup"></path>
        </g>
    </g>
</svg>